<svg width="20" height="20" viewBox="0 0 20 20" fill="none" xmlns="http://www.w3.org/2000/svg">
<path d="M10.026 1.24989C9.86839 1.24513 9.71261 1.2852 9.57683 1.36545L1.66016 6.02203C1.56195 6.07522 1.47543 6.1476 1.40574 6.23489C1.33606 6.32218 1.28463 6.42258 1.25451 6.53013C1.22439 6.63768 1.2162 6.75019 1.23041 6.86097C1.24463 6.97176 1.28098 7.07855 1.33728 7.17501C1.39358 7.27147 1.4687 7.35563 1.55817 7.42248C1.64764 7.48934 1.74964 7.53753 1.8581 7.56419C1.96656 7.59086 2.07928 7.59545 2.18955 7.57769C2.29982 7.55993 2.40539 7.52019 2.5 7.46083V16.6666C2.50002 16.8876 2.58783 17.0995 2.7441 17.2558C2.90038 17.4121 3.11233 17.4999 3.33333 17.4999H16.6667C16.8877 17.4999 17.0996 17.4121 17.2559 17.2558C17.4122 17.0995 17.5 16.8876 17.5 16.6666V7.46083C17.5946 7.52019 17.7002 7.55993 17.8105 7.57769C17.9207 7.59545 18.0334 7.59086 18.1419 7.5642C18.2504 7.53753 18.3524 7.48934 18.4418 7.42249C18.5313 7.35563 18.6064 7.27147 18.6627 7.17501C18.719 7.07855 18.7554 6.97176 18.7696 6.86097C18.7838 6.75019 18.7756 6.63768 18.7455 6.53013C18.7154 6.42258 18.6639 6.32218 18.5943 6.23489C18.5246 6.1476 18.4381 6.07522 18.3398 6.02203L10.4232 1.36545C10.3026 1.29417 10.166 1.25443 10.026 1.24989ZM10 3.05002L15.8333 6.48101V15.8332H13.3333V9.99989C13.3333 9.77888 13.2455 9.56694 13.0892 9.41066C12.933 9.25439 12.721 9.16658 12.5 9.16656H7.5C7.279 9.16658 7.06705 9.25439 6.91077 9.41066C6.7545 9.56694 6.66669 9.77888 6.66667 9.99989V15.8332H4.16667V6.48101L10 3.05002ZM8.33334 10.8332H11.6667V15.8332H8.33334V10.8332Z" fill="url(#paint0_linear_596_1953)"/>
<defs>
<linearGradient id="paint0_linear_596_1953" x1="18.7764" y1="1.24951" x2="-0.591202" y2="5.19898" gradientUnits="userSpaceOnUse">
<stop stop-color="#0A6DC8"/>
<stop offset="1" stop-color="#2038B6"/>
</linearGradient>
</defs>
</svg>
