<svg width="20" height="20" viewBox="0 0 20 20" fill="none" xmlns="http://www.w3.org/2000/svg">
<path d="M10.0002 1.6665C9.07933 1.6665 8.3335 2.41234 8.3335 3.33317V4.1665C8.3335 5.08734 9.07933 5.83317 10.0002 5.83317C10.921 5.83317 11.6668 5.08734 11.6668 4.1665V3.33317C11.6668 2.41234 10.921 1.6665 10.0002 1.6665ZM4.16683 3.33317C3.246 3.33317 2.50016 4.079 2.50016 4.99984V5.83317C2.50016 6.754 3.246 7.49984 4.16683 7.49984C5.08766 7.49984 5.8335 6.754 5.8335 5.83317V4.99984C5.8335 4.079 5.08766 3.33317 4.16683 3.33317ZM15.8335 3.33317C14.9127 3.33317 14.1668 4.079 14.1668 4.99984V5.83317C14.1668 6.754 14.9127 7.49984 15.8335 7.49984C16.7543 7.49984 17.5002 6.754 17.5002 5.83317V4.99984C17.5002 4.079 16.7543 3.33317 15.8335 3.33317ZM9.16683 7.49984C7.9546 7.49984 6.93296 8.19018 6.34945 9.1665H4.16683C2.33572 9.1665 0.833496 10.6687 0.833496 12.4998V15.8332C0.833496 16.7441 1.58928 17.4998 2.50016 17.4998H6.66683H13.3335H17.5002C18.4111 17.4998 19.1668 16.7441 19.1668 15.8332V12.4998C19.1668 10.6687 17.6646 9.1665 15.8335 9.1665H13.6509C13.0674 8.19018 12.0457 7.49984 10.8335 7.49984H9.16683ZM9.16683 9.1665H10.8335C11.7641 9.1665 12.5002 9.90261 12.5002 10.8332V15.8332H7.50016V10.8332C7.50016 9.90261 8.23627 9.1665 9.16683 9.1665ZM4.16683 10.8332H5.8335V15.8332H2.50016V12.4998C2.50016 11.5693 3.23627 10.8332 4.16683 10.8332ZM14.1668 10.8332H15.8335C16.7641 10.8332 17.5002 11.5693 17.5002 12.4998V15.8332H14.1668V10.8332Z" fill="url(#paint0_linear_596_1977)"/>
<defs>
<linearGradient id="paint0_linear_596_1977" x1="19.1668" y1="1.6665" x2="-0.942307" y2="6.06237" gradientUnits="userSpaceOnUse">
<stop stop-color="#0A6DC8"/>
<stop offset="1" stop-color="#2038B6"/>
</linearGradient>
</defs>
</svg>
