<svg width="20" height="20" viewBox="0 0 20 20" fill="none" xmlns="http://www.w3.org/2000/svg">
<path d="M5.00003 2.5C3.66722 2.5 2.57227 3.58216 2.50654 4.88932C2.50191 4.92603 2.49974 4.963 2.50003 5V15C2.50003 16.3708 3.62922 17.5 5.00003 17.5H15.4167C16.5576 17.5 17.5 16.5576 17.5 15.4167V7.91667C17.5 6.77578 16.5576 5.83333 15.4167 5.83333H12.5H5.08954C4.6394 5.83333 4.23949 5.52376 4.17809 5.14648C4.08744 4.58699 4.48272 4.16667 5.00003 4.16667H14.1667C14.1651 4.27709 14.1855 4.38673 14.2267 4.4892C14.2679 4.59168 14.329 4.68494 14.4066 4.76358C14.4841 4.84223 14.5765 4.90467 14.6784 4.9473C14.7803 4.98992 14.8896 5.01187 15 5.01187C15.1105 5.01187 15.2198 4.98992 15.3217 4.9473C15.4236 4.90467 15.516 4.84223 15.5935 4.76358C15.671 4.68494 15.7322 4.59168 15.7733 4.4892C15.8145 4.38673 15.8349 4.27709 15.8334 4.16667C15.8334 3.25578 15.0776 2.5 14.1667 2.5H5.00003ZM4.16669 7.33398C4.45964 7.44106 4.7714 7.5 5.08954 7.5H12.5H15.4167C15.6558 7.5 15.8334 7.67755 15.8334 7.91667V15.4167C15.8334 15.6558 15.6558 15.8333 15.4167 15.8333H5.00003C4.52917 15.8333 4.16669 15.4709 4.16669 15V7.33398ZM13.3334 10.8333C13.1123 10.8333 12.9004 10.9211 12.7441 11.0774C12.5878 11.2337 12.5 11.4457 12.5 11.6667C12.5 11.8877 12.5878 12.0996 12.7441 12.2559C12.9004 12.4122 13.1123 12.5 13.3334 12.5C13.5544 12.5 13.7663 12.4122 13.9226 12.2559C14.0789 12.0996 14.1667 11.8877 14.1667 11.6667C14.1667 11.4457 14.0789 11.2337 13.9226 11.0774C13.7663 10.9211 13.5544 10.8333 13.3334 10.8333Z" fill="url(#paint0_linear_596_1973)"/>
<defs>
<linearGradient id="paint0_linear_596_1973" x1="17.5" y1="2.5" x2="0.854141" y2="5.64261" gradientUnits="userSpaceOnUse">
<stop stop-color="#0A6DC8"/>
<stop offset="1" stop-color="#2038B6"/>
</linearGradient>
</defs>
</svg>
